<?xml version="1.0" encoding="UTF-8" standalone="no"?>
<svg width="60px" height="60px" viewBox="0 0 60 60" version="1.1" xmlns="http://www.w3.org/2000/svg" xmlns:xlink="http://www.w3.org/1999/xlink" xmlns:sketch="http://www.bohemiancoding.com/sketch/ns">
    <!-- Generator: Sketch 3.2.2 (9983) - http://www.bohemiancoding.com/sketch -->
    <title>Cloudmessage</title>
    <desc>Created with Sketch.</desc>
    <defs></defs>
    <g id="stroked" stroke="none" stroke-width="1" fill="none" fill-rule="evenodd" sketch:type="MSPage">
        <g id="Tech" sketch:type="MSLayerGroup" transform="translate(-478.000000, -1569.000000)" stroke="#000000" stroke-width="2">
            <g id="Cloudmessage" transform="translate(480.000000, 1579.000000)" sketch:type="MSShapeGroup">
                <path d="M22.7514088,32 L42.1651743,32 L42.1650522,31.9984289 C49.2980526,31.8893123 55.0465756,26.1100919 55.0465756,18.9968386 C55.0465756,11.8153909 49.1873025,5.9936773 41.9595229,5.9936773 C39.3341358,5.9936773 36.8893095,6.76179494 34.8402659,8.08418826 L34.8402659,8.08418826 C32.9577198,3.79254084 28.6503036,0.792412758 23.6376491,0.792412758 C17.4839183,0.792412758 12.3930506,5.31389926 11.5466612,11.1956518 C11.5055196,11.1951789 11.4643209,11.1949418 11.4230666,11.1949418 C5.64084285,11.1949418 0.95342439,15.8523127 0.95342439,21.5974709 C0.95342439,27.3426291 5.64084285,32 11.4230666,32 L11.4230666,32 L15.0520861,32 L15.0520861,40.6490662 L22.7514088,32 Z" id="Oval-396"></path>
                <circle id="Oval-574" stroke-linecap="round" stroke-linejoin="round" cx="19.5" cy="19.5" r="2.5"></circle>
                <circle id="Oval-575" stroke-linecap="round" stroke-linejoin="round" cx="29.5" cy="19.5" r="2.5"></circle>
                <circle id="Oval-576" stroke-linecap="round" stroke-linejoin="round" cx="39.5" cy="19.5" r="2.5"></circle>
            </g>
        </g>
    </g>
</svg>