<?xml version="1.0" encoding="iso-8859-1"?>
<!DOCTYPE svg PUBLIC "-//W3C//DTD SVG 1.1//EN" "http://www.w3.org/Graphics/SVG/1.1/DTD/svg11.dtd">
<svg 
 version="1.1" xmlns="http://www.w3.org/2000/svg" xmlns:xlink="http://www.w3.org/1999/xlink" x="0px" y="0px" width="512px"
	 height="512px" viewBox="0 0 512 512" enable-background="new 0 0 512 512" xml:space="preserve"
><g id="b75708d097f2188dff6617b0f00d4b46"><g></g><g fill="#e30013"><path display="inline" d="M488.948,451.729l-65.015-44.293l2.237,72.126h-43.273l1.622-70.296l-63.788,42.667l-22.148-33.726
		l72.126-42.463l-71.922-42.87l21.944-33.926l63.588,43.273l-1.422-70.296h43.07l-1.622,70.496l64.398-42.866l22.552,33.726
		l-72.732,42.259l72.937,42.667L488.948,451.729z M265.406,410.481c2.113-9.083,7.86-16.9,15.895-21.629l22.568-13.291
		l-22.522-13.424c-7.947-4.736-13.628-12.504-15.732-21.512c-2.104-9.007-0.457-18.484,4.57-26.253l21.944-33.925
		c2.529-3.913,5.814-7.213,9.603-9.763c-17.99-7.786-34.134-14.781-36.683-15.892V235.64c0-1.443,0.445-3.782,1.368-7.023
		c0.906-3.152,1.917-6.479,3.02-9.979c1.26-4.002,2.636-8.3,4.096-12.823c5.281-9.893,9.444-20.967,12.463-33.304
		c3.011-12.338,4.521-25.315,4.521-39.021c0-18.607-1.95-34.393-5.889-47.235c-3.946-12.889-9.314-23.286-16.172-31.239
		c-6.846-7.937-14.775-13.671-23.824-17.239c-9.032-3.588-18.651-5.339-28.881-5.339c-10.417,0-20.127,1.805-29.156,5.477
		c-9.053,3.639-16.946,9.496-23.683,17.535c-6.774,8.022-12.105,18.418-16.052,31.208c-3.909,12.769-5.888,28.382-5.888,46.833
		c0,14.054,1.567,27.344,4.67,39.853c3.102,12.511,7.311,23.67,12.6,33.528c1.452,4.213,2.753,8.145,3.826,11.767
		c0.927,3.117,1.775,6.169,2.62,9.184c0.811,3.013,1.41,5.265,1.763,6.704v18.36c-5.66,2.549-125.151,53.212-128.989,54.477
		c-7.489,2.757-13.586,6.898-18.343,12.492c-4.741,5.568-8.496,11.215-11.236,17.104C4.596,343.716,2.155,350.84,0.5,358.32v63.497
		h264.245C264.346,418.063,264.533,414.232,265.406,410.481z"></path></g></g></svg>