<?xml version="1.0" encoding="iso-8859-1"?>
<!DOCTYPE svg PUBLIC "-//W3C//DTD SVG 1.1//EN" "http://www.w3.org/Graphics/SVG/1.1/DTD/svg11.dtd">
<svg 
 version="1.1" xmlns="http://www.w3.org/2000/svg" xmlns:xlink="http://www.w3.org/1999/xlink" x="0px" y="0px" width="512px"
	 height="512px" viewBox="0 0 512 512" style="enable-background:new 0 0 512 512;" xml:space="preserve"
><g id="afcae5a789ccd549f9c6e2a2f8168044"><g></g><g fill="#f28500"><path style="display: inline;" d="M511.5,208.817L303.181,0.5l-31.312,31.313l20.506,20.506
		c-65.285,66.649-97.431,114.484-74.043,165.926c-11.465-5.282-22.73-7.794-34.04-7.794c-39.706-0.004-80.019,30.961-131.983,81.915
		l-20.498-20.497L0.5,303.183L208.821,511.5l31.312-31.313l-21.537-21.537c65.283-66.649,97.428-114.484,74.041-165.926
		c11.465,5.281,22.73,7.793,34.039,7.793c39.708,0,80.021-30.96,131.981-81.919l21.533,21.533L511.5,208.817z M326.676,279.226
		c-8.375,0-16.596-1.909-25.134-5.843c-2.853-1.314-5.889-1.95-8.899-1.95c-5.514,0-10.947,2.142-15.024,6.2
		c-6.307,6.275-8.045,15.807-4.364,23.903c15.989,35.164,0.135,69.78-65.162,137.377L72.043,302.862
		c45.686-44.292,81.179-71.123,112.247-71.119c8.379,0,16.601,1.909,25.136,5.843c2.853,1.314,5.888,1.95,8.899,1.95
		c5.514,0,10.947-2.142,15.025-6.2c6.304-6.275,8.044-15.807,4.364-23.903c-15.987-35.165-0.135-69.78,65.162-137.377
		l136.049,136.046C393.24,252.398,357.749,279.226,326.676,279.226z M254.969,311.059c9.222,20.285,4.377,43.391-46.445,98.578
		L102.993,304.105c38.184-35.197,63.085-50.385,82.17-50.385c5.454,0,10.787,1.231,16.31,3.776l36.857,16.967L254.969,311.059z
		 M266.947,210.057c17.697,3.011,36.647,4.67,56.382,4.67c32.203,0,62.349-4.366,88.267-11.956
		c-49.029,46.609-74.925,58.503-99.819,47.033l-33.845-15.578L266.947,210.057z"></path></g></g></svg>